<?xml version="1.0" standalone="no"?>
<!DOCTYPE svg PUBLIC "-//W3C//DTD SVG 20010904//EN"
 "http://www.w3.org/TR/2001/REC-SVG-20010904/DTD/svg10.dtd">
<svg version="1.0" xmlns="http://www.w3.org/2000/svg"
 width="1280.000000pt" height="1280.000000pt" viewBox="0 0 1280.000000 1280.000000"
 preserveAspectRatio="xMidYMid meet">
<metadata>
Created by potrace 1.14, written by Peter Selinger 2001-2017
</metadata>
<g transform="translate(0.000000,1280.000000) scale(0.100000,-0.100000)"
fill="#000000" stroke="none">
<path d="M5773 10138 c-158 -227 -357 -526 -484 -729 -153 -245 -370 -599
-391 -639 -11 -19 -41 -71 -68 -115 -26 -44 -75 -124 -107 -179 -32 -54 -65
-110 -74 -125 -9 -14 -25 -42 -36 -61 -11 -19 -48 -81 -82 -138 -33 -57 -61
-107 -61 -111 0 -4 -9 -16 -20 -26 -11 -10 -20 -22 -20 -27 0 -16 -380 -638
-391 -638 -3 0 -37 39 -75 87 -174 221 -354 422 -579 647 -256 257 -324 318
-625 559 -138 111 -545 387 -570 387 -6 0 -10 5 -10 10 0 6 -4 10 -9 10 -7 0
-131 68 -201 110 -22 14 -348 175 -400 198 -25 11 -63 28 -85 37 -22 9 -59 25
-82 36 -49 21 -51 18 -21 -31 23 -38 228 -445 228 -453 0 -3 14 -36 31 -74 17
-37 39 -87 50 -110 10 -24 19 -47 19 -53 0 -6 4 -18 10 -28 25 -45 132 -347
200 -567 28 -91 107 -418 115 -475 1 -8 6 -33 10 -55 14 -74 15 -80 21 -115 3
-19 7 -46 10 -60 6 -38 32 -247 39 -315 23 -239 24 -674 1 -900 -2 -22 -7 -71
-10 -110 -4 -38 -9 -81 -11 -95 -2 -14 -9 -61 -15 -105 -9 -68 -20 -128 -46
-262 -2 -13 -6 -33 -8 -45 -26 -146 -111 -457 -176 -646 -28 -81 -52 -151 -54
-157 -2 -5 -8 -23 -15 -40 -6 -16 -16 -43 -22 -60 -6 -16 -15 -39 -19 -50
-206 -502 -415 -897 -707 -1342 -34 -50 -59 -94 -57 -96 8 -8 512 6 664 18 25
2 83 6 130 10 95 7 151 12 225 21 28 3 70 7 95 10 25 2 61 7 80 9 19 3 53 8
75 11 71 9 77 10 86 25 11 20 150 380 154 399 2 8 4 16 5 18 2 1 3 5 5 10 1 4
5 14 8 22 12 27 89 254 102 300 7 25 30 99 50 165 38 125 104 369 135 500 17
73 16 68 48 220 17 77 33 157 36 179 4 21 8 41 10 45 2 3 7 30 10 60 4 29 8
56 10 60 2 3 6 29 10 56 3 28 8 61 11 74 10 51 29 203 40 311 3 36 8 75 10 86
4 20 9 68 20 229 2 28 6 88 10 135 3 47 8 153 10 235 2 83 4 152 4 154 2 11
277 -351 391 -515 178 -257 501 -748 535 -814 18 -35 31 -37 54 -11 15 17 132
147 175 194 20 22 77 89 156 182 19 23 49 59 65 80 17 21 35 43 40 49 34 37
222 280 368 476 59 80 114 153 122 163 8 9 15 21 15 26 0 5 4 11 8 13 4 2 28
32 52 68 79 115 75 117 73 -38 -2 -217 -13 -726 -18 -847 -6 -150 -16 -365
-20 -450 -2 -38 -6 -115 -9 -170 -3 -55 -8 -136 -11 -180 -3 -44 -8 -111 -10
-150 -3 -38 -7 -104 -10 -145 -2 -41 -7 -97 -10 -125 -2 -27 -7 -90 -10 -140
-3 -49 -8 -106 -10 -125 -6 -43 -14 -135 -20 -215 -3 -33 -7 -76 -10 -95 -2
-19 -7 -68 -10 -108 -4 -41 -8 -82 -10 -91 -2 -10 -6 -55 -10 -102 -4 -46 -8
-91 -10 -100 -4 -19 -13 -92 -20 -169 -8 -71 -14 -125 -19 -159 -3 -14 -7 -53
-11 -86 -6 -59 -12 -104 -20 -156 -4 -20 2 -31 27 -49 68 -50 310 -210 318
-210 4 0 10 -3 12 -8 9 -20 661 -412 686 -412 4 0 9 21 9 47 0 27 4 136 8 243
3 107 8 249 10 315 2 66 6 215 10 330 3 116 8 284 10 375 43 1495 52 3961 20
5530 -17 818 -31 1330 -38 1336 -2 2 -58 -74 -124 -168z"/>
<path d="M6250 6215 c0 -2252 2 -4095 5 -4095 2 0 19 8 37 18 18 10 78 43 133
72 83 45 243 134 390 220 17 9 79 47 139 83 59 37 110 67 113 67 2 0 9 5 16
10 16 14 187 124 215 139 22 12 23 16 17 84 -4 40 -8 88 -10 107 -2 19 -6 64
-9 100 -4 36 -9 91 -11 123 -3 31 -7 83 -10 115 -8 96 -26 323 -40 507 -15
189 -28 402 -39 635 -3 63 -8 147 -11 185 -2 39 -7 129 -10 200 -3 72 -8 180
-10 240 -3 61 -7 178 -10 260 -2 83 -7 247 -10 365 -3 118 -8 368 -10 555 -3
294 -1 337 11 320 8 -11 22 -31 31 -44 23 -31 109 -151 125 -174 7 -10 21 -28
30 -40 9 -12 72 -96 139 -187 68 -91 126 -167 129 -170 3 -3 17 -21 30 -40 13
-19 27 -37 30 -40 3 -3 39 -48 80 -100 40 -52 76 -97 79 -100 4 -3 18 -21 33
-42 15 -20 33 -42 40 -50 7 -7 47 -53 88 -103 41 -49 84 -101 97 -114 12 -13
48 -55 80 -92 32 -37 61 -68 64 -68 4 -1 53 72 110 161 133 211 488 746 565
853 7 11 31 43 51 72 21 28 45 61 53 73 32 46 161 216 175 230 13 12 15 -1 16
-110 0 -69 2 -154 4 -190 7 -141 16 -307 20 -340 2 -19 6 -72 10 -116 5 -77 8
-107 20 -194 2 -19 7 -62 10 -95 3 -33 8 -71 10 -85 2 -14 6 -45 9 -70 4 -38
14 -100 42 -275 4 -28 12 -76 20 -120 2 -11 6 -33 10 -48 3 -16 7 -38 9 -50
17 -112 77 -390 131 -602 14 -55 27 -107 29 -115 13 -63 87 -316 161 -545 26
-82 49 -154 51 -160 3 -11 63 -180 83 -232 9 -26 18 -33 38 -34 15 0 34 -2 42
-4 8 -2 33 -6 55 -10 22 -3 65 -10 95 -15 51 -8 88 -14 172 -25 77 -11 106
-14 158 -20 30 -3 71 -8 90 -10 19 -3 64 -7 100 -10 64 -5 146 -12 245 -20 84
-7 345 -16 345 -12 0 2 -24 44 -54 93 -250 416 -553 1070 -676 1459 -7 22 -16
49 -21 60 -7 17 -16 46 -26 80 -1 6 -14 48 -29 95 -23 76 -50 170 -60 210 -2
8 -11 42 -20 75 -9 33 -22 89 -30 125 -8 36 -17 74 -20 85 -3 11 -7 29 -9 40
-2 11 -17 92 -33 180 -17 88 -33 183 -36 210 -4 28 -9 61 -11 75 -7 49 -15
116 -20 168 -3 28 -7 73 -10 100 -26 255 -26 849 -1 1062 4 33 7 62 22 204 3
33 7 67 9 75 2 15 12 76 20 131 6 40 15 91 25 150 6 30 13 69 15 85 3 17 8 38
11 47 3 10 8 30 10 45 3 16 10 48 15 73 6 25 12 52 14 60 1 8 8 35 15 60 7 25
14 55 16 67 2 12 8 33 13 45 5 13 9 25 9 28 0 3 5 25 12 50 7 25 13 52 15 60
5 23 52 170 107 335 66 195 247 646 278 695 6 8 13 22 16 30 3 8 21 48 40 88
19 40 34 75 34 77 0 2 -37 -14 -82 -37 -46 -23 -85 -42 -88 -43 -3 0 -16 -7
-30 -14 -14 -8 -63 -34 -110 -59 -47 -25 -129 -72 -183 -104 -55 -32 -101 -58
-103 -58 -3 0 -17 -9 -32 -19 -15 -10 -97 -65 -182 -121 -85 -57 -167 -112
-182 -124 -15 -11 -48 -37 -74 -56 -58 -43 -305 -240 -320 -254 -6 -6 -42 -38
-80 -71 -179 -156 -517 -494 -644 -645 -12 -14 -33 -38 -48 -55 -15 -16 -65
-75 -110 -130 -46 -55 -91 -109 -101 -120 -9 -11 -46 -58 -81 -104 -36 -47
-72 -92 -80 -101 -8 -8 -26 -32 -40 -53 -14 -20 -28 -37 -32 -37 -6 0 -55 74
-83 125 -6 11 -27 45 -47 75 -50 78 -113 180 -178 286 -95 158 -135 223 -155
254 -12 19 -62 100 -110 180 -49 80 -95 153 -103 163 -8 9 -12 17 -7 17 4 0
-4 15 -17 33 -13 17 -55 83 -94 145 -38 62 -78 128 -89 146 -60 98 -143 228
-176 278 -22 31 -39 62 -39 67 0 6 -4 11 -10 11 -5 0 -10 5 -10 10 0 35 -786
1157 -812 1159 -5 1 -8 -1842 -8 -4094z"/>
</g>
</svg>
